<svg width="100" height="100" viewBox="0 0 100 100" fill="none" xmlns="http://www.w3.org/2000/svg">
<circle cx="50" cy="50" r="50" fill="#DBDBDB"/>
<path fill-rule="evenodd" clip-rule="evenodd" d="M50.817 38.5153C56.3661 38.5153 60.8645 34.0168 60.8645 28.4677C60.8645 22.9186 56.3661 18.4202 50.817 18.4202C45.2679 18.4202 40.7695 22.9186 40.7695 28.4677C40.7695 34.0168 45.2679 38.5153 50.817 38.5153ZM50.817 48.5628C61.9152 48.5628 70.912 39.5659 70.912 28.4677C70.912 17.3695 61.9152 8.37259 50.817 8.37259C39.7188 8.37259 30.722 17.3695 30.722 28.4677C30.722 39.5659 39.7188 48.5628 50.817 48.5628Z" fill="#002D56"/>
<path fill-rule="evenodd" clip-rule="evenodd" d="M50.8166 53.5867C36.9439 53.5867 25.6979 64.8328 25.6979 78.7056H15.6504C15.6504 59.2837 31.3948 43.5392 50.8166 43.5392C70.2384 43.5392 85.9829 59.2837 85.9829 78.7056H75.9354C75.9354 64.8328 64.6894 53.5867 50.8166 53.5867Z" fill="#002D56"/>
<path d="M51.5044 89.6599C51.5044 89.6599 38.035 82.1581 38.035 73.1559C38.035 64.1537 48.5112 63.4035 51.5044 70.4468C54.4976 63.4035 64.9738 64.1537 64.9738 73.1559C64.9738 82.1581 51.5044 89.6599 51.5044 89.6599Z" fill="#934040"/>
</svg>
