<svg width="12" height="12" viewBox="0 0 12 12" fill="none" xmlns="http://www.w3.org/2000/svg">
<path d="M10 10L10 2C10 1.72386 9.77614 1.5 9.5 1.5L8 1.5C7.72386 1.5 7.5 1.72386 7.5 2L7.5 10C7.5 10.2761 7.72386 10.5 8 10.5H9.5C9.77614 10.5 10 10.2761 10 10Z" stroke="#C6861E" stroke-linecap="round" stroke-linejoin="round"/>
<path d="M4.5 10L4.5 2C4.5 1.72386 4.27614 1.5 4 1.5L2.5 1.5C2.22386 1.5 2 1.72386 2 2L2 10C2 10.2761 2.22386 10.5 2.5 10.5H4C4.27614 10.5 4.5 10.2761 4.5 10Z" stroke="#C6861E" stroke-linecap="round" stroke-linejoin="round"/>
</svg>
